<?xml version="1.0" encoding="utf-8"?>
<!-- Generator: Adobe Illustrator 16.0.0, SVG Export Plug-In . SVG Version: 6.00 Build 0)  -->
<!DOCTYPE svg PUBLIC "-//W3C//DTD SVG 1.1 Basic//EN" "http://www.w3.org/Graphics/SVG/1.1/DTD/svg11-basic.dtd">
<svg version="1.1" baseProfile="basic" id="Layer_1"
	 xmlns="http://www.w3.org/2000/svg" xmlns:xlink="http://www.w3.org/1999/xlink" x="0px" y="0px" width="144px" height="144px"
	 viewBox="0 0 144 144" xml:space="preserve">
<path d="M38.198,13.797C53.995,4.678,72.805,2.668,89.189,7.031c16.383,4.362,31.656,15.559,40.776,31.354
	c9.119,15.795,11.159,34.587,6.765,50.989c-4.396,16.404-15.559,31.657-31.354,40.777c-19.195,11.082-42.157,11.867-61.695,2.873
	c-9.777-4.471-17.951-11.001-24.687-19.497l16.874-9.742c14.957,16.917,40.001,21.251,59.916,9.753
	c11.25-6.495,19.169-17.477,22.325-29.154c3.123-11.656,1.737-25.158-4.758-36.407c-6.494-11.25-17.514-19.233-29.189-22.39
	C72.504,22.463,59.04,23.915,47.79,30.41C27.842,41.927,19.105,65.764,26.277,87.175L9.403,96.917
	C1.29,76.748,3.495,54.283,15.047,35.928C20.889,26.712,28.584,19.348,38.198,13.797z"/>
</svg>
