<?xml version="1.0" encoding="utf-8"?>
<!-- Generator: Adobe Illustrator 25.2.0, SVG Export Plug-In . SVG Version: 6.00 Build 0)  -->
<svg version="1.1" baseProfile="basic" xmlns="http://www.w3.org/2000/svg" xmlns:xlink="http://www.w3.org/1999/xlink" x="0px"
	 y="0px" width="39.7px" height="39.71px" viewBox="0 0 39.7 39.71" xml:space="preserve">
	 <!-- Base Fill Path)  -->
	<path fill="#FFFFFF" d="M39.64,21.48l0.06-1.03l-0.53-0.03c0.01-0.46,0.01-0.93-0.01-1.39l0.53-0.04l-0.07-1.03l-0.52,0.04
		c-0.04-0.46-0.12-0.92-0.2-1.38l0.52-0.1l-0.2-1.02l-0.51,0.1c-0.1-0.45-0.21-0.9-0.34-1.35l0.49-0.16l-0.33-0.98l-0.5,0.17
		c-0.16-0.44-0.33-0.87-0.52-1.29l0.47-0.23l-0.45-0.93l-0.47,0.23c-0.21-0.41-0.45-0.81-0.69-1.21l0.45-0.29l-0.56-0.87l-0.43,0.28
		c-0.26-0.38-0.55-0.75-0.84-1.11l0.41-0.34L34.72,6.7l-0.41,0.34c-0.31-0.35-0.62-0.7-0.95-1.02l0.35-0.38l-0.76-0.7l-0.36,0.39
		c-0.35-0.31-0.71-0.61-1.07-0.89l0.31-0.43l-0.84-0.6l-0.31,0.43c-0.39-0.26-0.78-0.5-1.18-0.73l0.25-0.47l-0.91-0.49L28.59,2.6
		c-0.42-0.21-0.84-0.39-1.27-0.57l0.19-0.49l-0.97-0.37l-0.19,0.49c-0.44-0.16-0.88-0.31-1.32-0.43l0.13-0.5l-1-0.25l-0.13,0.52
		c-0.45-0.1-0.91-0.18-1.37-0.25l0.06-0.53l-1.03-0.12L21.62,0.6c-0.46-0.04-0.93-0.05-1.39-0.06l0-0.53l-1.04,0.01l0,0.53
		c-0.46,0.02-0.93,0.03-1.39,0.08l-0.07-0.51l-1.03,0.14l0.07,0.53c-0.46,0.07-0.91,0.16-1.37,0.27l-0.14-0.51l-1,0.26l0.13,0.5
		c-0.44,0.13-0.88,0.29-1.32,0.45l-0.2-0.49l-0.96,0.39l0.19,0.48c-0.42,0.18-0.84,0.38-1.26,0.6l-0.25-0.45l-0.9,0.51l0.26,0.47
		C9.58,3.48,9.18,3.72,8.8,3.99L8.49,3.57L7.65,4.18l0.32,0.43C7.79,4.76,7.59,4.88,7.41,5.04C7.23,5.19,7.08,5.35,6.9,5.51
		L6.53,5.12L5.78,5.84l0.36,0.38C5.81,6.55,5.51,6.89,5.21,7.24L4.79,6.91l-0.65,0.8l0.4,0.33C4.26,8.41,3.99,8.79,3.73,9.17
		L3.29,8.9L2.74,9.77l0.45,0.28c-0.24,0.4-0.47,0.81-0.67,1.22l-0.47-0.22L1.61,12l0.48,0.22c-0.18,0.43-0.35,0.86-0.5,1.3
		l-0.51-0.16l-0.31,0.99l0.49,0.15c-0.13,0.45-0.22,0.9-0.32,1.36l-0.52-0.1l-0.19,1.02l0.52,0.1c-0.07,0.46-0.14,0.92-0.18,1.38
		l-0.52-0.03L0,19.26l0.53,0.03c-0.01,0.46-0.01,0.93,0.01,1.39l-0.53,0.04l0.07,1.03l0.52-0.04c0.04,0.46,0.12,0.92,0.2,1.38
		l-0.52,0.1l0.2,1.02l0.51-0.1c0.1,0.45,0.21,0.9,0.34,1.35l-0.49,0.16l0.33,0.98l0.5-0.17c0.16,0.44,0.33,0.87,0.52,1.29
		l-0.47,0.23l0.45,0.93l0.47-0.23c0.21,0.41,0.45,0.81,0.69,1.21l-0.45,0.29l0.56,0.87l0.43-0.28c0.26,0.38,0.55,0.75,0.84,1.11
		l-0.41,0.34l0.67,0.79l0.41-0.34c0.31,0.35,0.62,0.7,0.95,1.02l-0.35,0.38l0.76,0.7l0.36-0.39c0.35,0.31,0.71,0.61,1.07,0.89
		l-0.31,0.43l0.84,0.6l0.31-0.43c0.39,0.26,0.78,0.5,1.18,0.73l-0.25,0.47l0.91,0.49l0.24-0.45c0.42,0.21,0.84,0.39,1.27,0.57
		l-0.19,0.49l0.97,0.37l0.19-0.49c0.44,0.16,0.88,0.31,1.32,0.43l-0.13,0.5l1,0.25l0.13-0.52c0.45,0.1,0.91,0.18,1.37,0.25
		l-0.06,0.53l1.03,0.12l0.06-0.51c0.46,0.04,0.93,0.05,1.39,0.06l0,0.53l1.04-0.01l0-0.53c0.46-0.02,0.93-0.03,1.39-0.08l0.07,0.51
		l1.03-0.14l-0.07-0.53c0.46-0.07,0.91-0.16,1.37-0.27l0.14,0.51l1-0.26l-0.13-0.5c0.44-0.13,0.88-0.29,1.32-0.45l0.2,0.49
		l0.96-0.39l-0.19-0.48c0.42-0.18,0.84-0.38,1.26-0.6l0.25,0.45l0.9-0.51l-0.26-0.47c0.4-0.24,0.79-0.48,1.18-0.75l0.31,0.42
		l0.83-0.61l-0.32-0.43c0.18-0.14,0.38-0.27,0.56-0.42s0.34-0.32,0.51-0.47l0.37,0.39l0.75-0.71l-0.36-0.38
		c0.33-0.33,0.64-0.68,0.94-1.03l0.41,0.34l0.65-0.8l-0.4-0.33c0.29-0.37,0.56-0.75,0.81-1.13l0.44,0.28l0.55-0.88l-0.45-0.28
		c0.24-0.4,0.47-0.81,0.67-1.22l0.47,0.22l0.43-0.94l-0.48-0.22c0.18-0.43,0.35-0.86,0.5-1.3l0.51,0.16l0.31-0.99l-0.49-0.15
		c0.13-0.45,0.22-0.9,0.32-1.36l0.52,0.1l0.19-1.02l-0.52-0.1c0.07-0.46,0.14-0.92,0.18-1.38L39.64,21.48z"/>
<!-- Black Outline )  -->
	<path d="M39.64,21.48l0.06-1.03l-0.53-0.03c0.01-0.46,0.01-0.93-0.01-1.39l0.53-0.04l-0.07-1.03l-0.52,0.04
		c-0.04-0.46-0.12-0.92-0.2-1.38l0.52-0.1l-0.2-1.02l-0.51,0.1c-0.1-0.45-0.21-0.9-0.34-1.35l0.49-0.16l-0.33-0.98l-0.5,0.17
		c-0.16-0.44-0.33-0.87-0.52-1.29l0.47-0.23l-0.45-0.93l-0.47,0.23c-0.21-0.41-0.45-0.81-0.69-1.21l0.45-0.29l-0.56-0.87l-0.43,0.28
		c-0.26-0.38-0.55-0.75-0.84-1.11l0.41-0.34L34.72,6.7l-0.41,0.34c-0.31-0.35-0.62-0.7-0.95-1.02l0.35-0.38l-0.76-0.7l-0.36,0.39
		c-0.35-0.31-0.71-0.61-1.07-0.89l0.31-0.43l-0.84-0.6l-0.31,0.43c-0.39-0.26-0.78-0.5-1.18-0.73l0.25-0.47l-0.91-0.49L28.59,2.6
		c-0.42-0.21-0.84-0.39-1.27-0.57l0.19-0.49l-0.97-0.37l-0.19,0.49c-0.44-0.16-0.88-0.31-1.32-0.43l0.13-0.5l-1-0.25l-0.13,0.52
		c-0.45-0.1-0.91-0.18-1.37-0.25l0.06-0.53l-1.03-0.12L21.62,0.6c-0.46-0.04-0.93-0.05-1.39-0.06l0-0.53l-1.04,0.01l0,0.53
		c-0.46,0.02-0.93,0.03-1.39,0.08l-0.07-0.51l-1.03,0.14l0.07,0.53c-0.46,0.07-0.91,0.16-1.37,0.27l-0.14-0.51l-1,0.26l0.13,0.5
		c-0.44,0.13-0.88,0.29-1.32,0.45l-0.2-0.49l-0.96,0.39l0.19,0.48c-0.42,0.18-0.84,0.38-1.26,0.6l-0.25-0.45l-0.9,0.51l0.26,0.47
		C9.58,3.48,9.18,3.72,8.8,3.99L8.49,3.57L7.65,4.18l0.32,0.43C7.79,4.76,7.59,4.88,7.41,5.04C7.23,5.19,7.08,5.35,6.9,5.51
		L6.53,5.12L5.78,5.84l0.36,0.38C5.81,6.55,5.51,6.89,5.21,7.24L4.79,6.91l-0.65,0.8l0.4,0.33C4.26,8.41,3.99,8.79,3.73,9.17
		L3.29,8.9L2.74,9.77l0.45,0.28c-0.24,0.4-0.47,0.81-0.67,1.22l-0.47-0.22L1.61,12l0.48,0.22c-0.18,0.43-0.35,0.86-0.5,1.3
		l-0.51-0.16l-0.31,0.99l0.49,0.15c-0.13,0.45-0.22,0.9-0.32,1.36l-0.52-0.1l-0.19,1.02l0.52,0.1c-0.07,0.46-0.14,0.92-0.18,1.38
		l-0.52-0.03L0,19.26l0.53,0.03c-0.01,0.46-0.01,0.93,0.01,1.39l-0.53,0.04l0.07,1.03l0.52-0.04c0.04,0.46,0.12,0.92,0.2,1.38
		l-0.52,0.1l0.2,1.02l0.51-0.1c0.1,0.45,0.21,0.9,0.34,1.35l-0.49,0.16l0.33,0.98l0.5-0.17c0.16,0.44,0.33,0.87,0.52,1.29
		l-0.47,0.23l0.45,0.93l0.47-0.23c0.21,0.41,0.45,0.81,0.69,1.21l-0.45,0.29l0.56,0.87l0.43-0.28c0.26,0.38,0.55,0.75,0.84,1.11
		l-0.41,0.34l0.67,0.79l0.41-0.34c0.31,0.35,0.62,0.7,0.95,1.02l-0.35,0.38l0.76,0.7l0.36-0.39c0.35,0.31,0.71,0.61,1.07,0.89
		l-0.31,0.43l0.84,0.6l0.31-0.43c0.39,0.26,0.78,0.5,1.18,0.73l-0.25,0.47l0.91,0.49l0.24-0.45c0.42,0.21,0.84,0.39,1.27,0.57
		l-0.19,0.49l0.97,0.37l0.19-0.49c0.44,0.16,0.88,0.31,1.32,0.43l-0.13,0.5l1,0.25l0.13-0.52c0.45,0.1,0.91,0.18,1.37,0.25
		l-0.06,0.53l1.03,0.12l0.06-0.51c0.46,0.04,0.93,0.05,1.39,0.06l0,0.53l1.04-0.01l0-0.53c0.46-0.02,0.93-0.03,1.39-0.08l0.07,0.51
		l1.03-0.14l-0.07-0.53c0.46-0.07,0.91-0.16,1.37-0.27l0.14,0.51l1-0.26l-0.13-0.5c0.44-0.13,0.88-0.29,1.32-0.45l0.2,0.49
		l0.96-0.39l-0.19-0.48c0.42-0.18,0.84-0.38,1.26-0.6l0.25,0.45l0.9-0.51l-0.26-0.47c0.4-0.24,0.79-0.48,1.18-0.75l0.31,0.42
		l0.83-0.61l-0.32-0.43c0.18-0.14,0.38-0.27,0.56-0.42s0.34-0.32,0.51-0.47l0.37,0.39l0.75-0.71l-0.36-0.38
		c0.33-0.33,0.64-0.68,0.94-1.03l0.41,0.34l0.65-0.8l-0.4-0.33c0.29-0.37,0.56-0.75,0.81-1.13l0.44,0.28l0.55-0.88l-0.45-0.28
		c0.24-0.4,0.47-0.81,0.67-1.22l0.47,0.22l0.43-0.94l-0.48-0.22c0.18-0.43,0.35-0.86,0.5-1.3l0.51,0.16l0.31-0.99l-0.49-0.15
		c0.13-0.45,0.22-0.9,0.32-1.36l0.52,0.1l0.19-1.02l-0.52-0.1c0.07-0.46,0.14-0.92,0.18-1.38L39.64,21.48z M31.61,33.87
		c-7.74,6.5-19.29,5.49-25.78-2.26c-6.5-7.74-5.49-19.29,2.26-25.78c7.74-6.5,19.29-5.49,25.78,2.26S39.36,27.38,31.61,33.87z
		 M30.94,10.55c2.49,2.96,3.67,6.71,3.33,10.57c-0.34,3.85-2.15,7.34-5.12,9.83c-2.96,2.49-6.71,3.67-10.57,3.33
		c-3.21-0.28-6.16-1.6-8.49-3.74l9.85-8.26l-2.46-2.93L7.64,27.6c-3.83-6.03-2.71-14.13,2.91-18.84c2.96-2.48,6.71-3.67,10.57-3.33
		C24.96,5.77,28.45,7.59,30.94,10.55z M31.77,9.86C26.25,3.29,16.42,2.43,9.85,7.94c-6.57,5.51-7.43,15.34-1.92,21.91
		c2.67,3.18,6.42,5.14,10.56,5.5c0.46,0.04,0.92,0.06,1.38,0.06c3.65,0,7.15-1.27,9.97-3.64c3.18-2.67,5.14-6.42,5.5-10.56
		C35.71,17.07,34.44,13.04,31.77,9.86z"/>
</svg>
