<?xml version="1.0" encoding="utf-8"?>
<!-- Generator: Adobe Illustrator 16.0.0, SVG Export Plug-In . SVG Version: 6.00 Build 0)  -->
<svg version="1.2" baseProfile="tiny" id="Layer_1" xmlns="http://www.w3.org/2000/svg" xmlns:xlink="http://www.w3.org/1999/xlink"
	 x="0px" y="0px" width="191.31px" height="191.5px" viewBox="0 0 191.31 191.5" xml:space="preserve">
<path d="M13.45,75.77c-1.82,7.43-2.22,18.61-1.03,28.49c1.37,11.35,4.87,22.21,5.74,24.96l-5.28,14.48l14.61,2.06
	c1.89,2.21,8.07,9.38,16.19,15.76c8.99,7.03,20.62,13.33,29,15.68c22.11,6.2,45.25,3.3,65.12-8.19
	c40.36-23.29,54.23-75.07,30.93-115.44C145.44,13.21,93.64-0.67,53.29,22.64C33.12,34.29,18.98,53.14,13.45,75.77z M164.41,56.06
	c21.91,37.97,8.87,86.7-29.1,108.62c-18.71,10.79-40.47,13.52-61.27,7.69c-7.68-2.17-18.89-8.25-27.26-14.81
	c-7.35-5.76-12.85-11.79-14.91-14.18l13.07-7.52c19.6,24.83,55.04,32.21,83.22,15.94c30.93-17.85,41.56-57.55,23.71-88.49
	c-17.87-30.93-57.57-41.56-88.5-23.72c-28.09,16.22-39.44,50.46-27.92,79.78l-13.07,7.55c-0.64-2.11-3.62-12-4.99-23.23
	c-1.13-9.35-0.77-19.84,0.92-26.72c5.19-21.29,18.49-39.05,37.47-49.99C93.76,5.03,142.49,18.1,164.41,56.06z M41.39,127.11
	c-17.31-30-6.99-68.47,22.98-85.79c29.99-17.31,68.45-7.01,85.76,22.99c17.32,29.97,7.01,68.45-22.97,85.77
	C97.19,167.38,58.7,157.07,41.39,127.11z M38.94,126.78l-22.31,13.93l5.67-12.46l13.92-7.02C37.04,123.1,37.94,124.96,38.94,126.78z
	 M40.43,129.37c1.05,1.69,2.14,3.32,3.29,4.9l-12.65,8.32l-13.77-0.81L40.43,129.37z"/>
<rect x="-0.09" y="0.1" fill="none" width="191.5" height="191.31"/>
</svg>
