<?xml version="1.0" encoding="utf-8"?>
<!-- Generator: Adobe Illustrator 16.0.0, SVG Export Plug-In . SVG Version: 6.00 Build 0)  -->
<!DOCTYPE svg PUBLIC "-//W3C//DTD SVG 1.1 Basic//EN" "http://www.w3.org/Graphics/SVG/1.1/DTD/svg11-basic.dtd">
<svg version="1.1" baseProfile="basic" id="Layer_1"
	 xmlns="http://www.w3.org/2000/svg" xmlns:xlink="http://www.w3.org/1999/xlink" x="0px" y="0px" width="144px" height="144px"
	 viewBox="0 0 144 144" xml:space="preserve">
<g>
	<path fill="none" d="M115.96,19.93c0.02,0.02,0.03,0.03,0.05,0.04C116,19.96,115.98,19.95,115.96,19.93z"/>
	<path fill="none" d="M115.81,19.81c-0.98-0.82-1.99-1.61-3.02-2.37c1.91,1.42,3.74,2.94,5.49,4.55
		C117.48,21.25,116.66,20.52,115.81,19.81z"/>
	<path fill="none" d="M111.12,108.56c8.48-9.11,13.43-20.84,14.3-33.23c0.87-12.44-2.98-25.18-10.38-35.18
		c-7.49-10.11-18.49-17.34-30.72-20.23c-12.01-2.85-24.83-1.38-35.93,4.04C37.25,29.39,28.18,38.84,23.1,50.14
		c-5.09,11.31-6,24.28-2.7,36.23c0.83-0.41,1.65-0.83,2.48-1.24c0.36-0.18,0.72-0.36,1.07-0.54c0.07-0.04-0.61-2.69-0.66-2.96
		c-0.84-4.27-1.13-8.64-0.85-12.98c0.53-8.1,3.08-16.02,7.38-22.91c5.58-8.92,13.95-15.96,23.72-19.86
		c9.91-3.96,21.03-4.62,31.34-1.84c10.54,2.83,20,9.17,26.63,17.84c6.38,8.35,9.91,18.66,10.14,29.16
		c0.23,11.05-3.28,21.97-9.92,30.8c-6.26,8.32-15.09,14.56-25.04,17.63c-10.31,3.18-21.55,2.91-31.68-0.79
		c-5.22-1.9-10.12-4.68-14.42-8.19c-1.22-0.99-2.38-2.04-3.49-3.15c-0.52-0.51-1.02-1.04-1.52-1.57c-0.3-0.32-0.2-0.3-0.48-0.1
		c-1,0.69-1.99,1.37-2.99,2.06c10.11,11.24,24.74,17.78,39.86,17.83C86.67,125.55,101.08,119.33,111.12,108.56z"/>
	<path fill="none" d="M28.19,124.21C28.19,124.21,28.19,124.21,28.19,124.21C28.01,124.06,27.89,123.96,28.19,124.21z"/>
	<path fill="none" d="M26.05,122.32c0.7,0.64,1.4,1.27,2.14,1.88c0,0,0,0,0.01,0.01c1.08,0.91,2.19,1.76,3.32,2.59
		C29.61,125.41,27.79,123.92,26.05,122.32z"/>
	<path fill="none" d="M28.19,124.21C28.19,124.21,28.19,124.21,28.19,124.21C28.83,124.75,28.45,124.43,28.19,124.21z"/>
	<path fill="none" d="M36.09,120.51c-1.64-1.21-3.2-2.49-4.71-3.86c0.59,0.54,1.19,1.08,1.81,1.6
		C34.13,119.04,35.1,119.78,36.09,120.51z"/>
	<path fill="none" d="M108.22,23.73c1.64,1.23,3.22,2.54,4.73,3.93c-0.7-0.64-1.41-1.28-2.15-1.9
		C109.96,25.07,109.1,24.39,108.22,23.73z"/>
	<path d="M118.32,16.82C148.75,42.36,105.36,5.95,118.32,16.82L118.32,16.82z"/>
	<polygon points="28.19,124.21 28.19,124.21 28.18,124.21 	"/>
	<path d="M138.96,45.44c-4.38-11.08-11.53-20.96-20.65-28.61C101.39,2.63,78.36-3.06,56.77,1.59c-20,4.31-37.54,17.27-47.58,35.09
		C0.25,52.56-2.27,71.62,2.08,89.31c4.61,18.72,16.8,35.06,33.42,44.81c18.78,11.03,42.07,12.95,62.4,5.13
		c18.7-7.19,33.88-22.27,41.18-40.93C145.69,81.45,145.62,62.29,138.96,45.44z M139.1,60.28c0.41,2.33,0.69,4.69,0.85,7.05
		l-7.77,0.49c-0.14-2.04-0.38-4.06-0.73-6.08L139.1,60.28z M138.83,58.85l-7.65,1.46c-0.39-2-0.89-3.99-1.49-5.94l7.4-2.41
		C137.8,54.23,138.38,56.52,138.83,58.85z M136.67,50.56l-7.4,2.41c-0.64-1.94-1.38-3.85-2.22-5.72l7.05-3.32
		C135.08,46.1,135.93,48.31,136.67,50.56z M133.47,42.61l-7.05,3.31c-0.88-1.84-1.86-3.64-2.93-5.4l6.58-4.17
		C131.32,38.39,132.45,40.48,133.47,42.61z M129.31,35.11l-6.58,4.17c-1.11-1.71-2.3-3.37-3.59-4.99l6-4.96
		C126.63,31.2,128.03,33.12,129.31,35.11z M119.34,23c1.73,1.67,3.35,3.4,4.86,5.21l-6,4.96c-1.31-1.56-2.71-3.05-4.2-4.5L119.34,23
		z M116.01,19.97c-0.01-0.01-0.03-0.02-0.05-0.04C115.98,19.95,116,19.96,116.01,19.97z M115.81,19.81
		c0.85,0.71,1.67,1.44,2.47,2.18l-5.33,5.68c-1.51-1.39-3.09-2.7-4.73-3.93l4.58-6.3C113.82,18.2,114.83,18.98,115.81,19.81z
		 M111.62,16.57l-4.58,6.3c-1.67-1.19-3.41-2.3-5.19-3.31l3.75-6.82C107.67,13.9,109.68,15.19,111.62,16.57z M104.32,12.03
		l-3.75,6.82c-1.81-0.97-3.67-1.86-5.56-2.64l2.87-7.24C100.08,9.88,102.23,10.9,104.32,12.03z M96.51,8.44l-2.87,7.24
		c-1.92-0.74-3.87-1.39-5.85-1.92l1.94-7.55C92.03,6.83,94.29,7.59,96.51,8.44z M81.3,4.51c2.36,0.33,4.7,0.79,7.01,1.35l-1.94,7.54
		c-1.99-0.49-4.01-0.89-6.05-1.17L81.3,4.51z M72.73,3.88c2.39,0.02,4.76,0.18,7.12,0.45l-0.98,7.73c-2.04-0.23-4.09-0.37-6.15-0.39
		V3.88z M71.27,3.88v7.79c-2.07,0.03-4.12,0.15-6.15,0.38l-0.98-7.73C66.49,4.05,68.87,3.91,71.27,3.88z M62.69,4.52l0.98,7.73
		c-2.04,0.28-4.06,0.67-6.05,1.15l-1.94-7.54C57.99,5.3,60.33,4.85,62.69,4.52z M54.27,6.22l1.94,7.54
		c-1.99,0.54-3.94,1.18-5.86,1.92l-2.87-7.24C49.7,7.58,51.96,6.84,54.27,6.22z M46.12,8.97l2.87,7.24
		c-1.9,0.78-3.76,1.65-5.57,2.63l-3.75-6.82C41.76,10.89,43.91,9.87,46.12,8.97z M38.39,12.74l3.75,6.82
		c-1.78,1.02-3.51,2.12-5.19,3.31l-4.58-6.3C34.32,15.19,36.33,13.91,38.39,12.74z M31.2,17.43l4.58,6.3
		c-1.64,1.23-3.21,2.55-4.72,3.95L25.72,22C27.47,20.38,29.3,18.85,31.2,17.43z M24.65,23l5.33,5.68c-1.46,1.42-2.87,2.91-4.2,4.49
		l-6-4.96C21.32,26.37,22.95,24.64,24.65,23z M18.88,29.35l6,4.96c-1.29,1.62-2.49,3.28-3.59,4.98l-6.57-4.17
		C15.98,33.15,17.37,31.22,18.88,29.35z M13.92,36.35l6.58,4.17c-1.08,1.76-2.06,3.56-2.94,5.39l-7.05-3.32
		C11.52,40.47,12.66,38.39,13.92,36.35z M9.91,43.93l7.05,3.31c-0.84,1.88-1.59,3.78-2.23,5.72l-7.4-2.41
		C8.06,48.32,8.93,46.11,9.91,43.93z M6.86,51.95l7.41,2.41c-0.6,1.96-1.09,3.95-1.48,5.95l-7.65-1.46
		C5.6,56.52,6.16,54.22,6.86,51.95z M4.89,60.28l7.65,1.46c-0.35,2.02-0.59,4.04-0.73,6.08l-7.77-0.49
		C4.2,64.97,4.48,62.62,4.89,60.28z M3.95,68.79l7.77,0.49c-0.09,2.04-0.07,4.08,0.04,6.12L4,75.88
		C3.86,73.52,3.85,71.16,3.95,68.79z M4.09,77.34l7.77-0.49c0.16,2.03,0.42,4.05,0.79,6.06L5,84.37C4.57,82.04,4.28,79.7,4.09,77.34
		z M5.3,85.8l7.65-1.46c0.39,1.86,0.86,3.7,1.42,5.52l-1.73,1l-5.19,2.99C6.57,91.22,5.86,88.52,5.3,85.8z M13.08,104.42l-1.83-8
		l27.66-13.47l5.61,9.43L19.08,109.5L13.08,104.42z M40.71,109.29c-1.62-1.36-3.14-2.82-4.55-4.36c0.01-0.01,0.02-0.02,0.03-0.03
		c3.92-3.34,7.85-6.68,11.77-10.02c0.69-0.59,1.38-1.18,2.07-1.77c0.33-0.29,0.2-0.29-0.04-0.67c-1.36-2.19-2.73-4.38-4.09-6.58
		c-1.5-2.41-3-4.82-4.5-7.23c-0.07-0.11-0.54-1.02-0.66-0.97c-0.67,0.27-1.34,0.55-2.01,0.82c-4.62,1.88-9.24,3.77-13.86,5.65
		c-1.56-6.13-1.95-12.54-1.09-18.81c2.92-21.49,20.5-38.82,41.98-41.58c10.92-1.4,22.15,0.98,31.55,6.7
		c9,5.48,16.12,13.88,19.97,23.7c3.92,10,4.45,21.27,1.43,31.59c-3.02,10.34-9.58,19.53-18.32,25.82
		c-8.42,6.06-18.72,9.27-29.09,9.13C60.17,120.52,49.24,116.45,40.71,109.29C49.46,116.63,39.09,107.93,40.71,109.29z M20.12,116.19
		l6-4.96c1.31,1.53,2.71,3,4.19,4.42l-5.33,5.68C23.26,119.69,21.64,117.97,20.12,116.19z M28.19,124.21
		C27.89,123.96,28.01,124.06,28.19,124.21c-0.73-0.62-1.44-1.25-2.14-1.89l5.33-5.68c1.5,1.37,3.07,2.65,4.71,3.86l-4.58,6.3
		C30.38,125.98,29.27,125.12,28.19,124.21C28.45,124.43,28.83,124.75,28.19,124.21z M32.69,127.67l4.58-6.3
		c1.67,1.17,3.39,2.25,5.15,3.24l-3.75,6.82C36.62,130.28,34.62,129.03,32.69,127.67z M39.95,132.14l3.75-6.82
		c1.8,0.95,3.63,1.81,5.51,2.58l-2.87,7.24C44.16,134.25,42.03,133.25,39.95,132.14z M47.71,135.66l2.87-7.24
		c1.9,0.72,3.82,1.36,5.78,1.88l-1.94,7.54C52.14,137.24,49.91,136.5,47.71,135.66z M62.77,139.53c-2.34-0.32-4.65-0.77-6.93-1.33
		l1.94-7.54c1.97,0.48,3.96,0.87,5.97,1.14L62.77,139.53z M71.27,140.14c-2.36-0.03-4.71-0.18-7.04-0.44l0.98-7.73
		c2.01,0.23,4.04,0.36,6.07,0.38V140.14z M71.96,125.55c-15.12-0.04-29.75-6.58-39.86-17.83c1-0.69,1.99-1.37,2.99-2.06
		c0.28-0.19,0.18-0.22,0.48,0.1c0.5,0.53,1,1.06,1.52,1.57c1.11,1.1,2.28,2.16,3.49,3.15c4.3,3.51,9.2,6.29,14.42,8.19
		c10.14,3.69,21.38,3.97,31.68,0.79c9.95-3.07,18.78-9.31,25.04-17.63c6.64-8.83,10.16-19.75,9.92-30.8
		c-0.22-10.5-3.75-20.81-10.14-29.16c-6.63-8.67-16.09-15.01-26.63-17.84c-10.31-2.77-21.42-2.12-31.34,1.84
		c-9.77,3.9-18.14,10.94-23.72,19.86c-4.31,6.89-6.85,14.81-7.38,22.91c-0.28,4.34,0,8.71,0.85,12.98c0.05,0.27,0.74,2.92,0.66,2.96
		c-0.36,0.18-0.72,0.36-1.07,0.54c-0.83,0.41-1.65,0.83-2.48,1.24c-3.3-11.95-2.38-24.92,2.7-36.23
		c5.07-11.3,14.14-20.75,25.28-26.19c11.09-5.41,23.91-6.88,35.93-4.04c12.23,2.9,23.24,10.13,30.72,20.23
		c7.4,10,11.26,22.74,10.38,35.18c-0.87,12.39-5.82,24.12-14.3,33.23C101.08,119.33,86.67,125.55,71.96,125.55z M72.73,140.14v-7.79
		c2.04-0.03,4.07-0.14,6.07-0.37l0.98,7.72C77.45,139.97,75.1,140.11,72.73,140.14z M81.22,139.51l-0.97-7.73
		c2.02-0.28,4.01-0.65,5.97-1.13l1.94,7.54C85.88,138.75,83.57,139.19,81.22,139.51z M89.58,137.84l-1.94-7.54
		c1.96-0.53,3.89-1.16,5.79-1.87l2.87,7.24C94.1,136.51,91.86,137.24,89.58,137.84z M97.66,135.15l-2.87-7.25
		c1.88-0.77,3.72-1.62,5.51-2.57l3.76,6.83C101.98,133.27,99.84,134.26,97.66,135.15z M105.33,131.44l-3.75-6.83
		c1.77-0.99,3.49-2.07,5.15-3.24l4.58,6.3C109.38,129.03,107.38,130.29,105.33,131.44z M112.49,126.82l-4.58-6.3
		c1.63-1.2,3.19-2.5,4.7-3.87l5.33,5.68C116.2,123.92,114.38,125.42,112.49,126.82z M119.03,121.34l-5.33-5.68
		c1.46-1.4,2.85-2.88,4.18-4.43l6,4.96C122.34,118,120.72,119.72,119.03,121.34z M124.81,115.07l-6-4.96
		c1.3-1.59,2.5-3.23,3.61-4.91l6.57,4.17C127.71,111.31,126.32,113.22,124.81,115.07z M129.78,108.13l-6.57-4.17
		c1.09-1.74,2.08-3.52,2.97-5.33l7.05,3.32C132.2,104.05,131.05,106.12,129.78,108.13z M133.85,100.63l-7.05-3.32
		c0.86-1.86,1.61-3.75,2.27-5.67l7.41,2.4C135.72,96.28,134.85,98.47,133.85,100.63z M136.94,92.67l-7.41-2.41
		c0.62-1.95,1.14-3.92,1.55-5.91l7.65,1.46C138.26,88.12,137.66,90.4,136.94,92.67z M139,84.37l-7.65-1.46
		c0.37-2.01,0.63-4.03,0.79-6.06l7.77,0.49C139.73,79.69,139.42,82.04,139,84.37z M132.25,75.4c0.11-2.04,0.11-4.08,0.02-6.12
		l7.77-0.49c0.11,2.36,0.12,4.73-0.02,7.1L132.25,75.4z"/>
	<path fill="#FFFFFF" d="M100.4,111.55c8.74-6.29,15.29-15.48,18.32-25.82c3.02-10.31,2.49-21.59-1.43-31.59
		c-3.85-9.82-10.96-18.22-19.97-23.7c-9.4-5.72-20.64-8.11-31.55-6.7C44.29,26.5,26.71,43.83,23.79,65.32
		c-0.85,6.27-0.47,12.68,1.09,18.81c4.62-1.88,9.24-3.77,13.86-5.65c0.67-0.27,1.34-0.54,2.01-0.82c0.12-0.05,0.59,0.87,0.66,0.97
		c1.5,2.41,3,4.82,4.5,7.23c1.36,2.19,2.73,4.38,4.09,6.58c0.24,0.38,0.37,0.38,0.04,0.67c-0.69,0.59-1.38,1.18-2.07,1.77
		c-3.92,3.34-7.85,6.68-11.77,10.02c-0.01,0.01-0.02,0.02-0.03,0.03c1.41,1.54,2.93,3,4.55,4.36c8.53,7.16,19.46,11.23,30.59,11.38
		C81.67,120.82,91.97,117.6,100.4,111.55z"/>
	<path fill="#FFFFFF" d="M40.71,109.29C39.09,107.93,49.46,116.63,40.71,109.29L40.71,109.29z"/>
	<path fill="#FFFFFF" d="M79.85,4.33c-2.36-0.27-4.73-0.43-7.12-0.45v7.79c2.06,0.02,4.11,0.16,6.15,0.39L79.85,4.33z"/>
	<path fill="#FFFFFF" d="M93.65,15.68l2.87-7.24c-2.22-0.86-4.48-1.61-6.78-2.23l-1.94,7.55C89.78,14.3,91.73,14.95,93.65,15.68z"/>
	<path fill="#FFFFFF" d="M88.31,5.86c-2.31-0.57-4.65-1.03-7.01-1.35l-0.98,7.73c2.04,0.28,4.06,0.68,6.05,1.17L88.31,5.86z"/>
	<path fill="#FFFFFF" d="M43.7,125.31l-3.75,6.82c2.08,1.11,4.21,2.11,6.4,3l2.87-7.24C47.33,127.13,45.5,126.27,43.7,125.31z"/>
	<path fill="#FFFFFF" d="M50.57,128.42l-2.87,7.24c2.2,0.84,4.44,1.58,6.71,2.19l1.94-7.54C54.4,129.78,52.47,129.14,50.57,128.42z"
		/>
	<path fill="#FFFFFF" d="M100.57,18.86l3.75-6.82c-2.1-1.13-4.25-2.16-6.45-3.06l-2.87,7.24C96.91,16.99,98.76,17.88,100.57,18.86z"
		/>
	<path fill="#FFFFFF" d="M55.84,138.2c2.28,0.56,4.6,1.01,6.93,1.33l0.98-7.73c-2.01-0.28-4.01-0.67-5.97-1.14L55.84,138.2z"/>
	<path fill="#FFFFFF" d="M110.81,25.77c0.74,0.62,1.45,1.25,2.15,1.9l5.33-5.68c-1.75-1.62-3.58-3.13-5.49-4.55l-4.58,6.3
		C109.1,24.39,109.96,25.07,110.81,25.77z"/>
	<path fill="#FFFFFF" d="M107.04,22.87l4.58-6.3c-1.94-1.39-3.95-2.67-6.01-3.84l-3.75,6.82C103.63,20.57,105.37,21.68,107.04,22.87
		z"/>
	<path fill="#FFFFFF" d="M14.27,54.35l-7.41-2.41c-0.7,2.28-1.26,4.58-1.72,6.9l7.65,1.46C13.18,58.3,13.67,56.32,14.27,54.35z"/>
	<path fill="#FFFFFF" d="M12.54,61.74l-7.65-1.46c-0.41,2.34-0.69,4.69-0.85,7.05l7.77,0.49C11.95,65.79,12.19,63.76,12.54,61.74z"
		/>
	<path fill="#FFFFFF" d="M11.73,69.28l-7.77-0.49C3.85,71.16,3.86,73.52,4,75.88l7.77-0.49C11.65,73.36,11.64,71.32,11.73,69.28z"/>
	<path fill="#FFFFFF" d="M118.2,33.18l6-4.96c-1.52-1.8-3.14-3.54-4.86-5.21L114,28.68C115.49,30.12,116.89,31.62,118.2,33.18z"/>
	<path fill="#FFFFFF" d="M11.86,76.85l-7.77,0.49c0.19,2.36,0.48,4.7,0.91,7.03l7.65-1.46C12.28,80.91,12.02,78.88,11.86,76.85z"/>
	<path fill="#FFFFFF" d="M37.27,121.37l-4.58,6.3c1.93,1.36,3.93,2.61,5.98,3.76l3.75-6.82C40.65,123.62,38.93,122.54,37.27,121.37z
		"/>
	<path fill="#FFFFFF" d="M36.09,120.51c-0.98-0.73-1.95-1.47-2.9-2.26c-0.62-0.52-1.22-1.06-1.81-1.6l-5.33,5.68
		c1.74,1.59,3.56,3.08,5.46,4.49L36.09,120.51z"/>
	<path fill="#FFFFFF" d="M16.96,47.25l-7.05-3.31c-0.98,2.17-1.84,4.38-2.58,6.63l7.4,2.41C15.37,51.03,16.11,49.12,16.96,47.25z"/>
	<path fill="#FFFFFF" d="M26.12,111.23l-6,4.96c1.52,1.78,3.14,3.49,4.86,5.13l5.33-5.68C28.83,114.24,27.43,112.76,26.12,111.23z"
		/>
	<path fill="#FFFFFF" d="M131.35,82.91l7.65,1.46c0.43-2.33,0.73-4.68,0.91-7.03l-7.77-0.49C131.98,78.88,131.72,80.9,131.35,82.91z
		"/>
	<path fill="#FFFFFF" d="M140.04,68.79l-7.77,0.49c0.09,2.04,0.09,4.08-0.02,6.12l7.77,0.49C140.16,73.52,140.16,71.15,140.04,68.79
		z"/>
	<path fill="#FFFFFF" d="M132.18,67.82l7.77-0.49c-0.16-2.36-0.44-4.71-0.85-7.05l-7.65,1.46C131.8,63.76,132.04,65.78,132.18,67.82
		z"/>
	<path fill="#FFFFFF" d="M101.58,124.61l3.75,6.83c2.05-1.15,4.05-2.41,5.98-3.77l-4.58-6.3
		C105.07,122.54,103.35,123.62,101.58,124.61z"/>
	<path fill="#FFFFFF" d="M107.91,120.51l4.58,6.3c1.89-1.4,3.71-2.9,5.46-4.5l-5.33-5.68C111.11,118.02,109.54,119.31,107.91,120.51
		z"/>
	<path fill="#FFFFFF" d="M118.81,110.1l6,4.96c1.51-1.85,2.9-3.75,4.18-5.71l-6.57-4.17C121.31,106.87,120.11,108.51,118.81,110.1z"
		/>
	<path fill="#FFFFFF" d="M113.7,115.66l5.33,5.68c1.7-1.62,3.31-3.34,4.85-5.15l-6-4.96C116.55,112.78,115.16,114.27,113.7,115.66z"
		/>
	<path fill="#FFFFFF" d="M129.54,90.26l7.41,2.41c0.72-2.26,1.32-4.55,1.79-6.86l-7.65-1.46C130.67,86.34,130.15,88.31,129.54,90.26
		z"/>
	<path fill="#FFFFFF" d="M126.8,97.31l7.05,3.32c1-2.16,1.87-4.35,2.63-6.58l-7.41-2.4C128.42,93.56,127.66,95.45,126.8,97.31z"/>
	<path fill="#FFFFFF" d="M123.21,103.96l6.57,4.17c1.26-2.02,2.41-4.08,3.44-6.19l-7.05-3.32
		C125.28,100.44,124.29,102.22,123.21,103.96z"/>
	<path fill="#FFFFFF" d="M80.25,131.78l0.97,7.73c2.34-0.32,4.66-0.75,6.94-1.31l-1.94-7.54C84.26,131.13,82.27,131.51,80.25,131.78
		z"/>
	<path fill="#FFFFFF" d="M94.79,127.91l2.87,7.25c2.18-0.89,4.32-1.88,6.4-2.99l-3.76-6.83C98.51,126.28,96.67,127.14,94.79,127.91z
		"/>
	<path fill="#FFFFFF" d="M126.42,45.93l7.05-3.31c-1.02-2.13-2.15-4.22-3.4-6.26l-6.58,4.17C124.57,42.28,125.54,44.09,126.42,45.93
		z"/>
	<path fill="#FFFFFF" d="M122.73,39.28l6.58-4.17c-1.28-1.98-2.67-3.91-4.17-5.77l-6,4.96C120.43,35.91,121.63,37.57,122.73,39.28z"
		/>
	<path fill="#FFFFFF" d="M72.73,132.35v7.79c2.37-0.03,4.72-0.17,7.05-0.43l-0.98-7.72C76.8,132.21,74.77,132.32,72.73,132.35z"/>
	<path fill="#FFFFFF" d="M131.19,60.31l7.65-1.46c-0.45-2.32-1.04-4.62-1.73-6.89l-7.4,2.41C130.29,56.32,130.79,58.3,131.19,60.31z
		"/>
	<path fill="#FFFFFF" d="M87.64,130.3l1.94,7.54c2.28-0.61,4.52-1.33,6.72-2.17l-2.87-7.24C91.53,129.14,89.6,129.77,87.64,130.3z"
		/>
	<path fill="#FFFFFF" d="M129.26,52.97l7.4-2.41c-0.74-2.25-1.59-4.46-2.57-6.63l-7.05,3.32C127.89,49.12,128.62,51.03,129.26,52.97
		z"/>
	<path fill="#FFFFFF" d="M64.22,139.7c2.33,0.27,4.68,0.42,7.04,0.44v-7.79c-2.03-0.02-4.06-0.15-6.07-0.38L64.22,139.7z"/>
	<path fill="#FFFFFF" d="M35.77,23.73l-4.58-6.3c-1.9,1.42-3.72,2.95-5.47,4.57l5.33,5.68C32.57,26.28,34.14,24.96,35.77,23.73z"/>
	<path fill="#FFFFFF" d="M48.99,16.21l-2.87-7.24c-2.2,0.9-4.36,1.92-6.46,3.05l3.75,6.82C45.23,17.87,47.09,16.99,48.99,16.21z"/>
	<path fill="#FFFFFF" d="M42.15,19.56l-3.75-6.82c-2.07,1.17-4.07,2.45-6.01,3.84l4.58,6.3C38.63,21.68,40.36,20.58,42.15,19.56z"/>
	<path fill="#FFFFFF" d="M56.2,13.76l-1.94-7.54c-2.3,0.62-4.57,1.36-6.79,2.22l2.87,7.24C52.26,14.94,54.21,14.3,56.2,13.76z"/>
	<path fill="#FFFFFF" d="M63.67,12.25l-0.98-7.73c-2.37,0.33-4.71,0.77-7.01,1.34l1.94,7.54C59.61,12.92,61.63,12.53,63.67,12.25z"
		/>
	<path fill="#FFFFFF" d="M71.27,11.67V3.88c-2.4,0.03-4.77,0.17-7.13,0.44l0.98,7.73C67.15,11.82,69.2,11.7,71.27,11.67z"/>
	<path fill="#FFFFFF" d="M20.49,40.52l-6.58-4.17c-1.25,2.04-2.4,4.12-3.41,6.25l7.05,3.32C18.43,44.08,19.42,42.28,20.49,40.52z"/>
	<path fill="#FFFFFF" d="M24.88,34.31l-6-4.96c-1.5,1.87-2.89,3.8-4.17,5.77l6.57,4.17C22.38,37.59,23.58,35.93,24.88,34.31z"/>
	<path fill="#FFFFFF" d="M29.99,28.68L24.65,23c-1.7,1.64-3.33,3.38-4.87,5.21l6,4.96C27.12,31.59,28.52,30.1,29.99,28.68z"/>
	<path fill="#FFFFFF" d="M14.36,89.86c-0.56-1.82-1.03-3.66-1.42-5.52L5.3,85.8c0.56,2.72,1.27,5.42,2.15,8.04l5.19-2.99
		L14.36,89.86z"/>
	<polygon fill="#FFFFFF" points="38.91,82.95 11.25,96.42 13.08,104.42 19.08,109.5 44.52,92.38 	"/>
</g>
</svg>
