<?xml version="1.0" encoding="utf-8"?>
<!-- Generator: Adobe Illustrator 25.2.0, SVG Export Plug-In . SVG Version: 6.00 Build 0)  -->
<svg version="1.1" baseProfile="basic" id="FLAT" xmlns="http://www.w3.org/2000/svg" xmlns:xlink="http://www.w3.org/1999/xlink"
	 x="0px" y="0px" viewBox="0 0 144 144" xml:space="preserve">
<path d="M118.13,16.67C104.64,5.35,88.22-0.18,71.88-0.18c-20.55,0-40.95,8.75-55.19,25.72C-8.87,56.01-4.9,101.42,25.56,126.98
	c13.49,11.32,29.91,16.85,46.24,16.85c20.55,0,40.95-8.75,55.19-25.72C152.56,87.65,148.59,42.23,118.13,16.67z M8.23,77.39
	c-1.49-16.99,3.73-33.55,14.7-46.61C35.09,16.28,52.93,7.97,71.88,7.97h0c14.96,0,29.53,5.31,41.01,14.94
	c13.07,10.96,21.08,26.36,22.57,43.35c1.49,16.99-3.73,33.55-14.7,46.61c-12.16,14.5-30.01,22.81-48.95,22.81
	c-10.77,0-21.34-2.76-30.69-7.9c0.68-0.14,1.34-0.35,2-0.58c9.02,4.69,18.88,7,28.7,7c17.8,0,35.48-7.58,47.82-22.28
	c22.15-26.39,18.7-65.74-7.69-87.88c-11.69-9.81-25.91-14.6-40.06-14.6v1.39h0c14.29,0,28.2,5.07,39.17,14.27
	c12.48,10.47,20.14,25.18,21.56,41.41c1.42,16.23-3.57,32.04-14.04,44.52c-11.62,13.85-28.66,21.79-46.76,21.79
	c-9.41,0-18.65-2.21-27-6.34c1.64-0.81,3.14-1.91,4.41-3.32c5.3-5.89,4.48-14.68-1.84-19.63c-2.8-2.19-6.2-3.26-9.59-3.26
	c-4.26,0-8.49,1.69-11.45,4.98c-1.14,1.27-1.98,2.67-2.56,4.14c-7.23-9.21-11.66-20.31-12.7-32.25
	C9.66,60.91,14.65,45.1,25.12,32.62c11.62-13.85,28.66-21.79,46.76-21.79l0-1.39c0,0,0,0,0,0c-17.8,0-35.48,7.58-47.82,22.28
	c-19.49,23.23-19.15,56.5-0.79,79.24c-0.16,0.63-0.28,1.26-0.35,1.89C14.53,102.9,9.39,90.64,8.23,77.39z M25.83,115.17
	c-0.26-2.92,0.64-5.77,2.53-8.02c2.09-2.49,5.16-3.93,8.42-3.93c2.57,0,5.08,0.91,7.06,2.57c4.64,3.89,5.25,10.84,1.35,15.48
	c-2.09,2.49-5.16,3.93-8.42,3.93c-2.57,0-5.08-0.91-7.06-2.57C27.47,120.74,26.09,118.09,25.83,115.17z M33.41,127.52
	c1.3,0.37,2.63,0.57,3.97,0.6c10.61,6.51,22.54,9.72,34.43,9.72c18.84,0,37.55-8.02,50.61-23.58c23.44-27.93,19.79-69.57-8.14-93.01
	C101.91,10.87,86.86,5.81,71.88,5.81c-18.84,0-37.55,8.02-50.61,23.58c-21.51,25.63-20.19,62.8,1.75,86.86
	c0.19,1.21,0.55,2.39,1.08,3.53C-0.54,95.26-2.74,55.42,20,28.32C32.89,12.96,51.8,4.14,71.88,4.14h0
	c15.86,0,31.29,5.62,43.46,15.84c13.85,11.62,22.34,27.94,23.92,45.95c1.58,18.01-3.96,35.55-15.58,49.4
	c-12.89,15.37-31.8,24.18-51.88,24.18C58.08,139.51,44.67,135.28,33.41,127.52z"/>
</svg>
